<svg width="54" height="36" viewBox="0 0 54 36" fill="none" xmlns="http://www.w3.org/2000/svg">
<path d="M50.5888 3.83566L54 0L0 7.27034L3.62805 12.0099V18.9975L8.4374 18.2909L13.9847 25.5382V27.5694L15.4411 27.4412L21.9948 35.9869L32.5424 24.1216C33.0926 24.3381 33.6774 24.4496 34.2674 24.4503C34.5808 24.4496 34.8936 24.4232 35.2028 24.3714C36.5958 24.15 37.8707 23.4463 38.8114 22.3796C39.719 21.3496 40.2243 20.0181 40.2322 18.636C40.238 17.7796 40.0143 16.9376 39.5849 16.2005L42.1417 13.3246L50.5791 12.1052L50.5888 3.83566Z" fill="#252641"/>
<path d="M7.57358 14.5635L10.5123 14.1329V16.8314L4.74493 17.6859V9.40654L7.57358 9.02856V14.5635Z" fill="#FFE654"/>
<path d="M14.2145 13.9655L17.4768 13.4987V15.8192L11.3826 16.7132V8.51599L17.2599 7.72388V10.0443L14.2145 10.465V11.0501L17.0431 10.6557V12.9794L14.2145 13.3804V13.9655Z" fill="#FFE654"/>
<path d="M26.076 14.5571L22.9205 15.0205L22.7004 13.8997L21.2861 14.1068L21.0692 15.2933L17.9137 15.7534L20.1436 7.33602L23.8429 6.83643L26.076 14.5571ZM22.3735 12.1051L22.0078 10.0838L21.6259 12.2136L22.3735 12.1051Z" fill="#FFE654"/>
<path d="M30.9728 11.2242V9.86016L33.5846 9.49204V12.2694C33.2021 12.77 32.7258 13.1886 32.1831 13.5012C31.6403 13.8137 31.042 14.0139 30.4226 14.0902C28.1571 14.4255 26.403 12.8478 26.403 10.5175C26.4023 9.36973 26.8079 8.25994 27.5458 7.39053C28.2837 6.52111 29.3047 5.94998 30.4226 5.78128C32.4907 5.5019 33.4681 6.61612 33.4681 6.61612L32.1735 8.94973C31.7659 8.63353 31.2576 8.48137 30.7463 8.52245C30.3815 8.57536 30.0485 8.76203 29.81 9.04723C29.5715 9.33243 29.444 9.69643 29.4517 10.0705C29.4371 10.2413 29.4617 10.4133 29.5236 10.5728C29.5856 10.7323 29.6831 10.875 29.8086 10.9897C29.9341 11.1044 30.0841 11.188 30.2469 11.2338C30.4096 11.2796 30.5805 11.2865 30.7463 11.2538L30.9728 11.2242Z" fill="#FFE654"/>
<path d="M39.2419 8.9759V4.76554L42.0738 4.38428V8.57491C42.0918 9.63456 41.7244 10.6638 41.0419 11.4655C40.3594 12.2672 39.4096 12.7851 38.3745 12.92C36.1997 13.2487 34.6753 11.8814 34.6753 9.63325V5.38017L37.5039 4.9989V9.2224C37.5039 9.84032 37.8858 10.1789 38.3745 10.1098C38.6313 10.0627 38.8619 9.92084 39.022 9.71154C39.1821 9.50224 39.2604 9.24025 39.2419 8.9759Z" fill="#FFE654"/>
<path d="M46.2067 9.38028L49.4723 8.91356V11.1256L43.3683 12.0196V4.20691L49.2457 3.41479V5.62679L46.197 6.0475V6.60296L49.0257 6.20855V8.42055L46.197 8.82482L46.2067 9.38028Z" fill="#FFE654"/>
<path d="M18.2473 25.9326C16.5708 26.2054 15.1015 26.3336 15.1015 26.3336V18.4783C15.1015 18.4783 16.5708 18.1496 18.2473 17.8899C21.0371 17.4692 22.4547 18.876 22.4547 21.2523C22.4547 23.6286 21.0371 25.4791 18.2473 25.9326ZM18.2473 23.4741C19.0338 23.3492 19.5063 22.7741 19.5063 21.7124C19.5063 20.6508 19.0338 20.2268 18.2473 20.3484L17.8298 20.4109V23.5432L18.2473 23.4741Z" fill="white"/>
<path d="M30.6198 23.8063L27.5808 24.3026L27.3704 23.2344L26.0079 23.4546L25.7975 24.5918L22.7552 25.0881L24.9204 16.9961L28.4805 16.457C28.4805 16.4998 30.6198 23.8063 30.6198 23.8063ZM27.0597 21.5055L26.6908 19.5762L26.325 21.6206L27.0597 21.5055Z" fill="white"/>
<path d="M35.0248 23.2508C32.6137 23.6452 30.9372 22.1661 30.9372 19.918C30.9625 18.7808 31.3892 17.6907 32.1394 16.8462C32.8896 16.0016 33.9136 15.4588 35.0248 15.3165C37.436 14.9517 39.1157 16.4307 39.1157 18.6493C39.1157 20.8678 37.436 22.8596 35.0248 23.2508ZM35.0248 17.9689C34.6916 18.041 34.3939 18.2295 34.1833 18.5016C33.9728 18.7736 33.8629 19.112 33.8726 19.4578C33.8726 20.2204 34.3969 20.6838 35.0248 20.5852C35.358 20.5125 35.6558 20.324 35.8668 20.0522C36.0777 19.7804 36.1886 19.4423 36.1802 19.0963C36.1802 18.337 35.6559 17.8736 35.0248 17.9689Z" fill="white"/>
</svg>
