<svg width="67" height="44" viewBox="0 0 67 44" fill="none" xmlns="http://www.w3.org/2000/svg">
<path d="M5.15593 15.5167L0 8.88655L67 0L61.4386 6.16649V4.43555L64.03 1.56481L2.15506 9.76748L5.15593 13.6312V15.5167Z" fill="#FFE654"/>
<path d="M17.5148 31.4197L10.6635 22.6104L11.9843 22.4172L17.5148 29.5342V31.4197Z" fill="#FFE654"/>
<path d="M10.115 17.9005L13.6218 17.406V20.5781L6.7395 21.5749V11.8422L10.115 11.394V17.9005Z" fill="#FFE654"/>
<path d="M18.0361 17.1973L21.9329 16.6487V19.3764L14.676 20.4274V10.7913L21.6896 9.86011V12.5918L18.0361 13.0863V13.7702L21.4154 13.3065V16.0382L18.0361 16.5134V17.1973Z" fill="#FFE654"/>
<path d="M32.1945 17.8928L28.4251 18.4376L28.1663 17.1239L26.4785 17.3635L26.2198 18.7583L22.4542 19.3185L25.1036 9.40422L29.518 8.8208L32.1945 17.8928ZM27.7762 15.0105L27.3244 12.6343L26.8686 15.138L27.7762 15.0105Z" fill="#FFE654"/>
<path d="M38.0381 13.9751V12.3639L41.1548 11.9312V15.1922C40.7003 15.7811 40.1333 16.2739 39.487 16.642C38.8406 17.0101 38.1275 17.2462 37.3893 17.3365C34.6588 17.7229 32.5809 15.8799 32.5809 13.1173C32.5871 11.771 33.0756 10.4715 33.9579 9.45488C34.8402 8.43824 36.0577 7.77186 37.3893 7.57677C39.8572 7.24835 41.0235 8.55815 41.0235 8.55815L39.4787 11.3053C38.9914 10.9393 38.3864 10.766 37.7793 10.8184C37.3438 10.8815 36.9463 11.1017 36.6617 11.4376C36.3772 11.7735 36.2252 12.2019 36.2345 12.6421C36.2169 12.8428 36.2462 13.0448 36.3201 13.2323C36.394 13.4197 36.5105 13.5873 36.6604 13.7219C36.8103 13.8564 36.9894 13.9543 37.1836 14.0076C37.3778 14.0609 37.5818 14.0683 37.7793 14.0292L38.0381 13.9751Z" fill="#FFE654"/>
<path d="M47.8902 11.3324V6.38301L51.2657 5.93481V10.8649C51.2855 12.1101 50.8465 13.3191 50.0323 14.2611C49.2181 15.2032 48.0858 15.8125 46.8513 15.9728C44.2559 16.3591 42.4369 14.748 42.4369 12.0897V7.10552L45.8124 6.65733V11.6222C45.8124 12.3524 46.2681 12.7504 46.8513 12.6693C47.158 12.6123 47.4331 12.4447 47.6246 12.1983C47.8161 11.9519 47.9106 11.6438 47.8902 11.3324Z" fill="#FFE654"/>
<path d="M56.2172 11.8115L60.114 11.259V13.8592L52.8417 14.9102V5.72998L59.863 4.79883V7.39911L56.2249 7.89367V8.54277L59.6004 8.08299V10.6833L56.2249 11.1546L56.2172 11.8115Z" fill="#FFE654"/>
<path d="M22.8522 31.2691C20.8516 31.5898 19.0982 31.7366 19.0982 31.7366V22.5024C19.0982 22.5024 20.8516 22.116 22.8522 21.8146C26.1813 21.3162 27.8729 22.9737 27.8729 25.7672C27.8729 28.5607 26.1813 30.7321 22.8522 31.2691ZM22.8522 28.3791C23.7907 28.2323 24.3545 27.5522 24.3545 26.3081C24.3545 25.064 23.7907 24.5579 22.8522 24.7008L22.354 24.7781V28.4564L22.8522 28.3791Z" fill="white"/>
<path d="M37.6169 28.7654L33.9865 29.3643L33.7355 28.1086L32.1095 28.3675L31.8585 29.7043L28.2281 30.2877L30.7964 20.7753L35.0447 20.1416C35.064 20.1764 37.6169 28.7654 37.6169 28.7654ZM33.3686 26.0608L32.9283 23.7967L32.4919 26.196L33.3686 26.0608Z" fill="white"/>
<path d="M42.8695 28.1164C39.9922 28.58 37.9916 26.8375 37.9916 24.1986C38.0173 22.8584 38.5243 21.5723 39.42 20.5755C40.3157 19.5787 41.5402 18.9378 42.8695 18.77C45.7468 18.3412 47.7512 20.0798 47.7512 22.6878C47.7512 25.2959 45.7506 27.6527 42.8695 28.1164ZM42.8695 21.9074C42.4722 21.9914 42.1169 22.2122 41.8657 22.5313C41.6144 22.8505 41.4831 23.2477 41.4946 23.6538C41.4946 24.554 42.1202 25.0949 42.8695 24.979C43.2668 24.8935 43.6216 24.6718 43.8727 24.3522C44.1238 24.0325 44.2553 23.6351 44.2444 23.2288C44.2483 22.3362 43.6419 21.7915 42.8695 21.9074Z" fill="white"/>
<path d="M48.7785 20.1918L51.9879 16.6333L50.1959 16.896L48.1606 19.1486C48.4107 19.4682 48.6184 19.8188 48.7785 20.1918Z" fill="#FFE654"/>
<path d="M39.2007 29.0745L27.3555 42.2111L20.3342 33.1623L19.0134 33.3516L27.2899 44L40.394 29.484C39.9809 29.3973 39.58 29.2597 39.2007 29.0745Z" fill="#FFE654"/>
</svg>
