<svg width="200" height="200" viewBox="0 0 200 200" fill="none" xmlns="http://www.w3.org/2000/svg">
<circle cx="100" cy="100" r="100" fill="#EF4A47"/>
<path d="M151.033 126.353C150.834 125.396 150.674 124.439 150.515 123.522C150.236 121.888 149.957 120.173 149.478 118.499C147.046 109.688 142.143 100.718 135.644 93.2634C131.06 88.001 125.797 83.1771 119.937 78.9513C116.787 76.6789 113.359 74.4862 109.532 72.2138C107.937 71.2969 106.263 70.4198 104.628 69.6225C103.392 69.0245 102.156 68.3866 100.921 67.7089C100.163 67.4298 99.4056 67.071 98.688 66.7122C98.2096 66.473 97.7312 66.2338 97.2927 66.0345C95.4588 65.2371 93.5452 64.4797 91.4323 63.7621C87.8044 62.5262 83.4988 61.1707 79.0338 60.4133C73.9309 59.4963 69.4259 59.3369 65.2798 59.7355C62.6885 60.0146 60.3762 60.4133 58.1835 61.0113C57.2666 61.2505 56.3895 61.6093 55.5125 61.9282C54.5158 62.3269 53.4394 62.6857 52.4029 62.9647L52.3231 63.0046C49.7717 65.0777 49.2534 66.6325 49.1737 70.0211C48.9743 77.3965 50.8879 85.4894 54.7151 93.5026C57.3463 99.044 60.8945 104.466 65.2399 109.609C67.4326 112.24 69.9841 114.871 73.2531 117.941C75.0471 119.615 76.9607 121.17 78.8344 122.685C80.1102 123.682 81.3859 124.718 82.6616 125.795C87.5254 129.064 92.2296 131.575 96.9738 133.529C105.585 137.037 114.435 139.15 123.365 139.788C124.96 139.907 126.475 139.947 127.99 139.947C133.811 139.947 139.113 139.11 143.897 137.475C147.246 136.319 150.076 135.044 150.794 131.336C151.073 129.821 151.153 128.187 151.033 126.353Z" fill="#B67A4E"/>
<path d="M85.3328 64.9978C72.8146 62.2071 60.5756 65.1971 49.1737 69.9811V70.021C49.0541 74.6854 49.7717 79.6288 51.2866 84.6919C59.539 95.2167 68.7084 104.705 80.1501 112.838C99.2861 126.791 122.01 131.974 144.734 128.784C146.887 128.426 149 127.748 151.033 126.911C151.033 126.711 151.033 126.552 150.993 126.353V126.313C150.794 125.396 150.634 124.399 150.475 123.482C150.196 121.848 149.917 120.133 149.438 118.459C147.006 109.648 142.103 100.678 135.605 93.2234C132.894 90.0739 129.864 87.0839 126.674 84.2932C124.96 83.177 123.246 82.0607 121.532 80.9046C110.05 72.9711 98.4887 68.1871 85.3328 64.9978Z" fill="#B67A4E"/>
<path d="M109.532 72.174C107.937 71.2571 106.262 70.38 104.628 69.5827C103.392 68.9847 102.156 68.3468 100.92 67.6691C100.163 67.39 99.4054 67.0312 98.6878 66.6724C98.2094 66.4332 97.731 66.194 97.2925 65.9947C95.4586 65.1974 93.545 64.4399 91.4321 63.7223C87.8042 62.4864 83.4986 61.131 79.0336 60.3735C73.9306 59.4964 69.4257 59.337 65.2796 59.7356C62.6883 60.0147 60.376 60.4134 58.1833 61.0114C57.2664 61.2506 56.3893 61.6094 55.5123 61.9283C54.5156 62.327 53.4392 62.6858 52.4027 62.9648L52.3229 63.0047C49.7715 65.0778 49.2931 66.6325 49.1735 69.9813C60.5753 65.1974 72.8144 62.2074 85.3325 64.998C98.4885 68.1873 110.05 72.9713 121.611 80.9447C123.325 82.1008 125.04 83.2171 126.754 84.3333C124.601 82.4596 122.329 80.6257 119.977 78.9513C116.787 76.6391 113.399 74.4464 109.532 72.174Z" fill="#CC8E64"/>
<path d="M144.735 128.785C122.011 131.974 99.2865 126.791 80.1506 112.838C68.7088 104.705 59.5395 95.2169 51.2871 84.6921C52.1642 87.6024 53.3203 90.5525 54.7156 93.5027C57.3468 99.0441 60.895 104.466 65.2404 109.609C67.4331 112.24 69.9846 114.871 73.2536 117.941C75.0476 119.615 76.9612 121.17 78.835 122.685C80.1107 123.682 81.3864 124.718 82.6622 125.795C87.5259 129.064 92.2301 131.575 96.9743 133.529C105.585 137.037 114.436 139.15 123.366 139.788C124.961 139.907 126.476 139.947 127.991 139.947C133.811 139.947 139.113 139.11 143.897 137.476C147.246 136.319 150.077 135.044 150.794 131.336C151.073 129.981 151.153 128.506 151.073 126.871C149 127.748 146.927 128.386 144.735 128.785Z" fill="#996441"/>
<path d="M152.429 126.034C152.429 123.722 151.791 121.29 151.233 119.097C150.196 115.071 148.721 111.164 146.847 107.496C141.306 96.5724 132.535 87.3234 122.888 79.8683C119.339 77.1175 115.672 74.5262 111.844 72.2139C109.572 70.8186 107.22 69.503 104.868 68.2273C103.991 67.7489 103.074 67.2705 102.157 66.7921C100.881 65.7157 99.127 65.1177 97.6121 64.4798C95.6985 63.6825 93.7849 62.925 91.8314 62.2473C87.3663 60.7323 82.7418 59.8154 78.1173 59.1775C73.4927 58.5397 68.7486 58.3802 64.0842 58.8187C61.8118 59.0181 59.4996 59.4566 57.3069 60.0945C55.7521 60.533 53.998 61.0114 52.5628 61.8885C49.5728 63.1243 48.2572 65.2373 47.9781 68.2273C47.699 71.2173 47.9382 74.287 48.3369 77.277C49.8917 88.2403 54.9548 98.486 61.6524 107.217C64.443 110.845 67.5925 114.273 70.9413 117.423C74.5293 120.811 78.5159 124.399 82.8215 126.911C91.5523 133.09 101.997 137.117 112.323 139.349C123.565 141.821 135.725 142.499 146.568 137.994C149.558 136.758 151.472 135.044 152.15 131.775C152.548 129.901 152.588 127.947 152.429 126.034ZM150.595 131.336C149.877 135.004 147.087 136.2 143.817 137.316C137.279 139.589 130.223 140.107 123.366 139.589C114.356 138.951 105.386 136.758 97.0539 133.329C91.9909 131.256 87.2866 128.625 82.7817 125.595C79.7119 122.924 76.3631 120.572 73.413 117.742C70.6223 115.11 67.9114 112.399 65.4397 109.449C61.2537 104.586 57.6258 99.2036 54.875 93.423C51.4465 86.2071 49.1741 78.0743 49.3734 70.0213C49.4532 66.7522 49.8917 65.1974 52.4432 63.1642C54.3966 62.6858 56.3102 61.729 58.2238 61.2107C60.5361 60.5729 62.8882 60.1742 65.2802 59.935C69.8649 59.4965 74.4894 59.8154 78.9943 60.533C83.1803 61.2107 87.3265 62.4865 91.353 63.8419C93.3463 64.5197 95.2998 65.2771 97.2134 66.1143C98.4094 66.6326 99.6054 67.3901 100.881 67.8286C103.712 69.3834 106.742 70.7389 109.492 72.3335C113.04 74.4066 116.549 76.6391 119.898 79.071C125.638 83.2171 130.941 88.0011 135.605 93.3432C141.824 100.519 146.847 109.33 149.399 118.499C150.116 121.09 150.395 123.722 150.914 126.313C150.954 128.027 150.914 129.702 150.595 131.336Z" fill="black"/>
<path d="M130.86 101.914C132.016 100.679 133.451 99.1636 133.73 97.6885C133.85 97.0506 133.212 96.4526 132.574 96.8114C131.258 97.529 130.302 99.2034 129.385 100.519C127.79 99.0838 126.155 97.7284 124.521 96.4526C123.126 95.3762 121.73 94.2998 120.295 93.2633C121.531 92.147 122.886 90.7916 123.165 89.3962C123.285 88.7185 122.647 88.2002 122.009 88.5192C120.694 89.1969 119.657 90.8314 118.581 92.0274C115.671 89.9145 112.681 87.8813 109.73 85.888C109.212 85.5292 108.694 85.1704 108.136 84.8116C109.013 83.496 109.81 82.1405 110.568 80.8249C111.166 79.7485 109.571 78.7917 108.933 79.8681C108.136 81.1837 107.299 82.4594 106.461 83.7352C102.833 81.3831 99.0462 79.1107 95.0595 77.1971C95.7771 76.0011 96.6542 74.8848 97.292 73.6091C97.7306 72.6921 96.5346 71.5759 95.817 72.4529C94.9 73.5692 93.9831 74.8848 93.2256 76.32C90.435 75.0841 87.6044 74.0476 84.734 73.2901C85.4516 72.1739 86.1692 71.0576 87.0064 70.0211C87.8038 68.9447 86.0098 67.9081 85.2124 68.9845C84.2955 70.2204 83.4583 71.4961 82.7008 72.8516C80.6676 72.4131 78.6344 72.134 76.5614 72.0543C75.4052 72.0144 75.1262 73.8881 76.2823 74.0875C78.0763 74.3665 79.8304 74.6855 81.5447 75.0443C80.9068 76.32 79.9102 78.0343 80.5879 79.31C80.6278 79.4296 80.8271 79.5093 80.9467 79.4695C82.3819 78.8715 82.8204 76.7984 83.4982 75.5227C86.4882 76.2801 89.3984 77.2369 92.3087 78.4728C91.7107 79.9479 91.3918 81.4628 91.3918 82.8581C91.3918 83.3764 92.1891 83.6554 92.4283 83.1372C92.9864 81.8615 93.5047 80.5459 94.0628 79.2701C97.9698 81.104 101.677 83.2568 105.345 85.569C104.548 86.8049 103.79 88.0408 103.073 89.2766C102.714 89.9145 103.551 90.5922 104.109 90.074C105.146 89.0374 106.142 87.8414 107.019 86.6454C107.578 87.0042 108.176 87.4029 108.734 87.7617C111.564 89.6354 114.355 91.549 117.146 93.5025C115.95 94.4194 114.634 95.2566 113.677 96.3729C113.318 96.7716 113.677 97.3297 114.195 97.25C115.87 96.9709 117.465 95.7749 118.82 94.6985C120.215 95.6952 121.571 96.6918 122.926 97.6885C124.8 99.1237 126.514 100.599 128.149 102.154C127.112 103.19 125.996 104.187 125.199 105.383C124.959 105.781 125.358 106.26 125.797 106.14C127.192 105.742 128.468 104.625 129.544 103.509C131.577 105.542 133.451 107.695 135.365 109.967C135.923 110.645 136.88 109.768 136.521 109.09C134.966 106.379 133.052 104.027 130.86 101.914Z" fill="black"/>
<path d="M73.3732 59.5363C73.3732 59.5363 51.2472 64.8386 50.131 85.2902C51.5662 89.4762 54.1575 92.3067 54.1575 92.3067C54.1575 92.3067 58.8618 67.2306 82.7419 60.5728C77.7984 59.0978 73.3732 59.5363 73.3732 59.5363Z" fill="white"/>
<path d="M54.6349 94.021L53.5585 92.825C53.4389 92.7054 50.8476 89.835 49.3725 85.5294L49.3326 85.3699V85.2105C49.811 76.6391 54.0768 69.3037 61.7312 64.0812C67.472 60.1742 72.9736 58.8188 73.2128 58.739H73.3324C73.5317 58.739 77.9569 58.3404 82.9801 59.8154L85.6511 60.6128L82.9801 61.3702C59.8574 67.8286 54.9937 92.227 54.9538 92.4662L54.6349 94.021ZM50.9273 85.1706C51.7246 87.4829 52.9206 89.3566 53.7578 90.5127C54.3957 88.1606 55.8708 83.5759 58.8209 78.5527C62.4089 72.4531 68.8673 64.6393 79.7509 60.7324C76.4818 60.1742 73.9304 60.3337 73.4918 60.3337C72.9337 60.4533 67.7909 61.8486 62.5684 65.4366C55.3525 70.4199 51.4456 77.0378 50.9273 85.1706Z" fill="black"/>
<path d="M125.199 140.107C125.199 140.107 148.202 133.688 148.64 112.24C146.966 107.894 144.175 105.024 144.175 105.024C144.175 105.024 140.149 131.495 115.352 139.349C120.614 140.705 125.199 140.107 125.199 140.107Z" fill="white"/>
<path d="M122.607 141.024C120.734 141.024 118.063 140.864 115.152 140.107L112.481 139.429L115.112 138.592C139.152 130.977 143.338 105.184 143.378 104.904L143.617 103.31L144.733 104.466C144.853 104.586 147.683 107.496 149.358 111.961L149.398 112.12V112.28C149.238 121.33 145.012 129.143 137.199 134.884C131.338 139.19 125.637 140.824 125.398 140.904L125.278 140.944C125.239 140.904 124.202 141.024 122.607 141.024ZM118.342 139.11C121.85 139.628 124.641 139.349 125.079 139.309C125.677 139.15 131.019 137.476 136.361 133.529C143.777 128.027 147.644 120.931 147.883 112.36C146.926 109.928 145.571 107.934 144.693 106.778C144.135 109.25 142.78 114.154 139.83 119.615C136.202 126.153 129.704 134.645 118.342 139.11Z" fill="black"/>
</svg>
