<svg width="22" height="24" viewBox="0 0 22 24" fill="none" xmlns="http://www.w3.org/2000/svg">
<path fill-rule="evenodd" clip-rule="evenodd" d="M2.56251 0H19.3125C20.725 0 21.875 1.0909 21.875 2.44269V23.7154L19.1875 21.4625L17.675 20.1344L16.075 18.7233L16.7375 20.917H2.56251C1.14999 20.917 0 19.8261 0 18.4743V2.44269C0 1.0909 1.14999 0 2.56251 0ZM13.6625 14.5257C14.0375 14.9763 14.4875 15.4862 14.4875 15.4862C17.25 15.4032 18.3125 13.6838 18.3125 13.6838C18.3125 9.86561 16.5125 6.77075 16.5125 6.77075C14.7125 5.49011 13 5.52569 13 5.52569L12.825 5.71541C14.95 6.33201 15.9375 7.22134 15.9375 7.22134C14.6375 6.54546 13.3625 6.21344 12.175 6.08301C11.275 5.98815 10.4125 6.01185 9.65 6.10672C9.58453 6.10672 9.52859 6.11575 9.46553 6.12594C9.45635 6.12742 9.44703 6.12893 9.4375 6.13043C9 6.16601 7.9375 6.32016 6.6 6.87747C6.13751 7.07905 5.8625 7.22134 5.8625 7.22134C5.8625 7.22134 6.9 6.28459 9.15 5.66799L9.02501 5.52569C9.02501 5.52569 7.3125 5.49011 5.5125 6.77075C5.5125 6.77075 3.7125 9.86561 3.7125 13.6838C3.7125 13.6838 4.76251 15.4032 7.525 15.4862C7.525 15.4862 7.9875 14.9525 8.3625 14.5019C6.775 14.0514 6.175 13.1027 6.175 13.1027C6.175 13.1027 6.3 13.1858 6.525 13.3043C6.5375 13.3162 6.55001 13.328 6.575 13.3399C6.59375 13.3518 6.6125 13.3607 6.63125 13.3696C6.65 13.3784 6.66875 13.3873 6.6875 13.3992C7 13.5652 7.3125 13.6957 7.6 13.8024C8.1125 13.9921 8.725 14.1818 9.4375 14.3122C10.375 14.4783 11.475 14.5375 12.675 14.3241C13.2625 14.2293 13.8625 14.0633 14.4875 13.8142C14.925 13.6601 15.4125 13.4348 15.925 13.1146C15.925 13.1146 15.3 14.087 13.6625 14.5257ZM7.40029 11.2645C7.40029 10.5411 7.96279 9.9482 8.67529 9.9482C9.3878 9.9482 9.9628 10.5411 9.95029 11.2645C9.95029 11.9877 9.3878 12.5806 8.67529 12.5806C7.9753 12.5806 7.40029 11.9877 7.40029 11.2645ZM11.9628 11.2645C11.9628 10.5411 12.5253 9.9482 13.2378 9.9482C13.9503 9.9482 14.5127 10.5411 14.5127 11.2645C14.5127 11.9877 13.9503 12.5806 13.2378 12.5806C12.5378 12.5806 11.9628 11.9877 11.9628 11.2645Z" fill="white"/>
</svg>
