<svg width="95" height="63" viewBox="0 0 95 63" fill="none" xmlns="http://www.w3.org/2000/svg">
<g clip-path="url(#clip0)">
<path d="M7.31064 21.9922L0 12.5951L95 0L87.1144 8.73991V6.2866L90.7888 2.21784L3.05568 13.8437L7.31064 19.3198V21.9922Z" fill="#FFE654"/>
<path d="M24.8345 44.5321L15.1199 32.0465L16.9927 31.7727L24.8345 41.8597V44.5321Z" fill="#FFE654"/>
<path d="M14.3421 25.371L19.3144 24.67V29.1659L9.55591 30.5788V16.7844L14.3421 16.1492V25.371Z" fill="#FFE654"/>
<path d="M25.5734 24.3743L31.0989 23.5967V27.4628L20.8092 28.9523V15.2948L30.7539 13.9751V17.8467L25.5734 18.5477V19.5169L30.3651 18.8598V22.7314L25.5734 23.405V24.3743Z" fill="#FFE654"/>
<path d="M45.649 25.36L40.3042 26.1322L39.9373 24.2703L37.5443 24.6098L37.1774 26.5867L31.8381 27.3807L35.5948 13.329L41.854 12.5021L45.649 25.36ZM39.3842 21.2748L38.7435 17.907L38.0974 21.4556L39.3842 21.2748Z" fill="#FFE654"/>
<path d="M53.9346 19.8071V17.5235L58.3538 16.9102V21.5321C57.7093 22.3668 56.9054 23.0653 55.9889 23.587C55.0724 24.1087 54.0614 24.4433 53.0146 24.5713C49.1429 25.1189 46.1968 22.5068 46.1968 18.5914C46.2055 16.6832 46.8982 14.8414 48.1492 13.4005C49.4002 11.9596 51.1265 11.0151 53.0146 10.7386C56.5138 10.2731 58.1676 12.1295 58.1676 12.1295L55.9772 16.0231C55.2863 15.5044 54.4284 15.2587 53.5677 15.3331C52.9501 15.4225 52.3865 15.7346 51.983 16.2107C51.5795 16.6867 51.3641 17.2939 51.3772 17.9178C51.3522 18.2023 51.3938 18.4886 51.4986 18.7542C51.6034 19.0199 51.7686 19.2574 51.9811 19.4482C52.1936 19.6389 52.4476 19.7776 52.723 19.8532C52.9984 19.9288 53.2875 19.9392 53.5677 19.8837L53.9346 19.8071Z" fill="#FFE654"/>
<path d="M67.9039 16.0615V9.04655L72.6901 8.41132V15.3989C72.7182 17.1637 72.0957 18.8772 70.9413 20.2124C69.7868 21.5476 68.1813 22.4112 66.4309 22.6383C62.7509 23.1859 60.1716 20.9024 60.1716 17.1348V10.0706L64.9578 9.43535V16.4722C64.9578 17.5072 65.604 18.0712 66.4309 17.9562C66.8657 17.8754 67.2559 17.6379 67.5274 17.2887C67.7988 16.9395 67.9328 16.5029 67.9039 16.0615Z" fill="#FFE654"/>
<path d="M79.7107 16.7405L85.2361 15.9574V19.6429L74.9246 21.1324V8.12108L84.8802 6.80133V10.4868L79.7217 11.1877V12.1077L84.5078 11.456V15.1415L79.7217 15.8096L79.7107 16.7405Z" fill="#FFE654"/>
<path d="M32.4024 44.3183C29.5658 44.7728 27.0796 44.9809 27.0796 44.9809V31.8929C27.0796 31.8929 29.5658 31.3453 32.4024 30.9181C37.1228 30.2117 39.5214 32.561 39.5214 36.5202C39.5214 40.4795 37.1228 43.5571 32.4024 44.3183ZM32.4024 40.2221C33.7331 40.014 34.5326 39.0502 34.5326 37.2869C34.5326 35.5236 33.7331 34.8062 32.4024 35.0088L31.696 35.1183V40.3316L32.4024 40.2221Z" fill="white"/>
<path d="M53.3374 40.7698L48.1898 41.6186L47.8339 39.8388L45.5284 40.2057L45.1725 42.1005L40.0249 42.9274L43.6665 29.4451L49.6903 28.5471C49.7177 28.5963 53.3374 40.7698 53.3374 40.7698ZM47.3136 36.9365L46.6894 33.7275L46.0706 37.1282L47.3136 36.9365Z" fill="white"/>
<path d="M60.7851 39.8497C56.7054 40.5068 53.8688 38.0371 53.8688 34.2969C53.9051 32.3975 54.6241 30.5747 55.8941 29.1619C57.1641 27.7491 58.9003 26.8407 60.7851 26.6029C64.8649 25.9951 67.707 28.4593 67.707 32.1557C67.707 35.8521 64.8703 39.1926 60.7851 39.8497ZM60.7851 31.0496C60.2218 31.1686 59.7181 31.4815 59.3618 31.9339C59.0056 32.3862 58.8193 32.9492 58.8356 33.5248C58.8356 34.8007 59.7228 35.5674 60.7851 35.4031C61.3484 35.2819 61.8516 34.9676 62.2076 34.5146C62.5637 34.0616 62.7501 33.4984 62.7346 32.9224C62.7401 31.6574 61.8804 30.8853 60.7851 31.0496Z" fill="white"/>
<path d="M69.1635 28.6185L73.7142 23.575L71.1733 23.9473L68.2874 27.1399C68.642 27.5929 68.9365 28.0899 69.1635 28.6185Z" fill="#FFE654"/>
<path d="M55.583 41.208L38.7877 59.8269L28.8321 47.0018L26.9592 47.2701L38.6946 62.3623L57.2751 41.7885C56.6893 41.6655 56.1209 41.4706 55.583 41.208Z" fill="#FFE654"/>
</g>
<defs>
<clipPath id="clip0">
<rect width="95" height="62.3622" fill="white"/>
</clipPath>
</defs>
</svg>
